<svg xmlns="http://www.w3.org/2000/svg" xmlns:xlink="http://www.w3.org/1999/xlink"><symbol id="check" viewBox="0 0 18 18"><circle cx="9" cy="9" r="9"/><path d="M13.5 6.375l-6.188 6.188L4.5 9.75" stroke="#fff" stroke-linecap="round" stroke-linejoin="round"/></symbol><symbol id="chevron" viewBox="0 0 11 6"><path d="M1 .75l4.5 4.5L10 .75"/></symbol><symbol id="copy" viewBox="0 0 18 18"><path d="M15 6.75H8.25a1.5 1.5 0 00-1.5 1.5V15a1.5 1.5 0 001.5 1.5H15a1.5 1.5 0 001.5-1.5V8.25a1.5 1.5 0 00-1.5-1.5z" fill="#fff"/><path d="M3.75 11.25H3a1.5 1.5 0 01-1.5-1.5V3A1.5 1.5 0 013 1.5h6.75a1.5 1.5 0 011.5 1.5v.75" fill="#fff"/></symbol><symbol id="dollar" viewBox="0 0 18 18"><path d="M9 .75v16.5m3.75-13.5H7.125a2.625 2.625 0 000 5.25h3.75a2.625 2.625 0 010 5.25H4.5" fill="#fff"/></symbol><symbol id="calendar" viewBox="0 0 18 18"><path d="M14.25 3H3.75a1.5 1.5 0 00-1.5 1.5V15a1.5 1.5 0 001.5 1.5h10.5a1.5 1.5 0 001.5-1.5V4.5a1.5 1.5 0 00-1.5-1.5zM12 1.5v3m-6-3v3m-3.75 3h13.5" fill="transparent" stroke="#2F2F30" stroke-linecap="round" stroke-linejoin="round"/></symbol><symbol id="repeat" viewBox="0 0 18 18"><path d="M12.75.75l3 3-3 3" fill="transparent" stroke="#2F2F30" stroke-linecap="round" stroke-linejoin="round"/><path d="M2.25 8.25v-1.5a3 3 0 013-3h10.5m-10.5 13.5l-3-3 3-3" fill="transparent" stroke="#2F2F30" stroke-linecap="round" stroke-linejoin="round"/><path d="M15.75 9.75v1.5a3 3 0 01-3 3H2.25" fill="transparent" stroke="#2F2F30" stroke-linecap="round" stroke-linejoin="round"/></symbol><symbol id="wallet" viewBox="0 0 18 18"><path d="M13.32 3.96V2.757c0-1.2-.259-1.545-1.747-1.153-1.093.288-7.488 2.061-7.488 2.061-1.97.743-2.27 1.375-2.27 2.814l-.015.884" fill="transparent" stroke="#2F2F30" stroke-miterlimit="10" stroke-linejoin="round"/><path d="M12.501 11.5a1 1 0 11-.002-2 1 1 0 01.002 2z" fill="transparent" stroke="#2F2F30"/><rect x="1.8" y="5.05" width="14.4" height="11.15" rx="1.5" fill="transparent" stroke="#2F2F30"/></symbol><symbol id="x-circle" viewBox="0 0 18 18"><path d="M9 16.5a7.5 7.5 0 100-15 7.5 7.5 0 000 15zm2.25-9.75l-4.5 4.5m0-4.5l4.5 4.5" fill="transparent" stroke="#2F2F30" stroke-linecap="round" stroke-linejoin="round"/></symbol></svg>